<?xml version="1.0" encoding="UTF-8"?>
<svg version="1.1" xmlns="http://www.w3.org/2000/svg" width="512" height="512">
<path d="M0 0 C2.83829516 0.57618982 5.6901912 1.07233403 8.54199219 1.57666016 C10.0005944 1.84604165 11.45905572 2.11619848 12.91699219 2.38916016 C12.91699219 3.04916016 12.91699219 3.70916016 12.91699219 4.38916016 C13.7484375 4.47939453 14.57988281 4.56962891 15.43652344 4.66259766 C19.57538034 5.52660145 22.86997106 7.08381191 26.60449219 9.01416016 C27.31001221 9.37533936 28.01553223 9.73651855 28.74243164 10.10864258 C49.89455115 21.08827677 66.49095909 36.7983402 79.91699219 56.38916016 C80.50480469 57.24251953 81.09261719 58.09587891 81.69824219 58.97509766 C92.00106961 75.0321638 96.57729146 93.37389732 98.00292969 112.17822266 C98.08894943 113.30595596 98.17496918 114.43368927 98.26359558 115.59559631 C98.84625661 123.8823904 99.09490918 132.14186951 99.15527344 140.44775391 C99.16863487 142.21707527 99.16863487 142.21707527 99.18226624 144.0221405 C99.21142755 148.8240162 99.23185391 153.62552223 99.22241211 158.42749023 C99.20948682 175.73679967 99.65589108 193.72212977 104.91699219 210.38916016 C105.57699219 210.71916016 106.23699219 211.04916016 106.91699219 211.38916016 C107.48730469 213.11181641 107.48730469 213.11181641 108.04199219 215.45166016 C109.37311787 220.14040137 111.26422776 224.37649144 113.47949219 228.70166016 C113.98851074 229.70096558 113.98851074 229.70096558 114.5078125 230.72045898 C115.24272789 232.16014025 115.97860938 233.59932866 116.71533203 235.03808594 C132.51515235 265.95077786 132.51515235 265.95077786 127.91699219 281.38916016 C124.4456649 291.19868206 117.49962454 296.43800758 108.56542969 301.22509766 C98.08951642 305.82955511 86.62293704 303.17395037 76.04199219 300.38916016 C60.64867432 296.6218997 47.85900201 295.04228671 33.54980469 303.34228516 C30.55744058 305.21549922 27.62893163 307.17729178 24.71240234 309.16601562 C7.69173163 320.76155006 -9.39685497 329.56010265 -30.45800781 329.57666016 C-31.27011719 329.58890625 -32.08222656 329.60115234 -32.91894531 329.61376953 C-46.79405062 329.64712315 -59.6320702 323.87210575 -71.08300781 316.38916016 C-72.44345011 315.50468433 -73.80414936 314.62060368 -75.16503906 313.73681641 C-75.89706543 313.26123291 -76.6290918 312.78564941 -77.38330078 312.2956543 C-78.1298291 311.81088623 -78.87635742 311.32611816 -79.64550781 310.82666016 C-80.38687988 310.34511475 -81.12825195 309.86356934 -81.89208984 309.36743164 C-94.81977497 300.99863883 -106.68901766 295.67137982 -122.46533203 298.87255859 C-125.7348458 299.68450868 -128.96990523 300.5983173 -132.20922852 301.5222168 C-144.12551766 304.89121364 -154.78093263 305.5306058 -166.32910156 300.38916016 C-174.11379994 296.01880317 -179.69122136 289.54517109 -182.64550781 281.13916016 C-187.35005948 263.07704214 -178.30248016 248.61015091 -169.89477539 233.33300781 C-159.43501997 214.20531802 -154.28775089 195.10941729 -153.52050781 173.32666016 C-153.45790771 171.57796631 -153.45790771 171.57796631 -153.39404297 169.79394531 C-153.09587783 160.61654399 -152.97672805 151.44558764 -152.95800781 142.26416016 C-152.95341553 141.01497803 -152.94882324 139.7657959 -152.9440918 138.47875977 C-152.95383098 132.73848328 -153.11628347 127.14374623 -153.84716797 121.45019531 C-155.60795075 106.0624849 -153.55381275 92.00818734 -146.08300781 78.38916016 C-145.34737121 76.94059603 -144.61599159 75.48986615 -143.88769531 74.03759766 C-127.28173238 41.19180847 -101.04555107 14.23084124 -65.49707031 2.38134766 C-44.0617065 -3.84815167 -21.83271838 -4.46506104 0 0 Z M-67.08300781 23.38916016 C-68.07300781 23.38916016 -69.06300781 23.38916016 -70.08300781 23.38916016 C-72.6264614 24.63583555 -75.06474212 25.92471511 -77.52050781 27.32666016 C-78.59196045 27.93682983 -78.59196045 27.93682983 -79.68505859 28.55932617 C-98.40245188 39.42512672 -116.20622297 56.20008271 -125.08300781 76.38916016 C-124.75300781 77.37916016 -124.42300781 78.36916016 -124.08300781 79.38916016 C-123.45677017 79.38249832 -122.83053253 79.37583649 -122.18531799 79.36897278 C-115.58119926 79.30184872 -108.97717965 79.25704507 -102.37280273 79.22436523 C-99.91833552 79.20941368 -97.46389437 79.18904507 -95.00952148 79.1628418 C-82.31787259 79.0308797 -70.06372122 78.97179112 -57.61401367 81.6418457 C-54.9853902 82.19817679 -52.48511677 82.61376049 -49.82739258 82.92358398 C-46.08300781 83.38916016 -46.08300781 83.38916016 -42.89550781 84.38916016 C-27.41711182 88.4490673 -11.29643047 84.99013444 3.89746094 81.03759766 C11.77330809 79.34627731 19.71141162 79.20077398 27.73339844 79.07275391 C29.37900002 79.04158226 29.37900002 79.04158226 31.05784607 79.00978088 C34.53166988 78.94486219 38.00556351 78.88567094 41.47949219 78.82666016 C43.84733769 78.78341997 46.21517637 78.739804 48.58300781 78.69580078 C54.36093071 78.58924067 60.13892168 78.48737167 65.91699219 78.38916016 C66.24699219 77.72916016 66.57699219 77.06916016 66.91699219 76.38916016 C66.91699219 77.37916016 66.91699219 78.36916016 66.91699219 79.38916016 C68.56699219 79.38916016 70.21699219 79.38916016 71.91699219 79.38916016 C69.27699219 74.43916016 66.63699219 69.48916016 63.91699219 64.38916016 C63.25699219 64.38916016 62.59699219 64.38916016 61.91699219 64.38916016 C61.82417969 63.82583984 61.73136719 63.26251953 61.63574219 62.68212891 C56.90882659 47.60224056 36.36516547 34.22171161 23.0222168 27.02661133 C-1.2641389 14.60945967 -42.77113384 7.18124417 -67.08300781 23.38916016 Z M-78.08300781 111.38916016 C-80.69144492 117.84814728 -80.86592803 123.57985821 -79.02050781 130.20166016 C-76.51805783 134.31859399 -74.72788693 135.22794038 -70.08300781 136.38916016 C-65.92044627 135.83415195 -63.87732441 135.3688173 -61.20800781 132.07666016 C-58.20397155 124.90035131 -58.45681205 118.29780378 -61.13378906 111.08837891 C-62.10615776 109.04448317 -62.10615776 109.04448317 -65.08300781 107.38916016 C-70.81655071 106.83430117 -74.08596078 106.80431209 -78.08300781 111.38916016 Z M7.54199219 109.07666016 C3.65176089 114.61275854 3.22419681 119.75073279 3.91699219 126.38916016 C4.92922767 129.95484127 6.26272474 132.73489271 8.91699219 135.38916016 C11.97356914 135.95964112 14.85620412 135.91779367 17.91699219 135.38916016 C21.19874537 132.85947541 22.60942996 131.31184684 23.91699219 127.38916016 C24.58130072 119.94019231 24.49940268 114.45411522 19.91699219 108.38916016 C15.76247889 106.31190351 11.24310107 106.4469249 7.54199219 109.07666016 Z M-28.08300781 137.38916016 C-30.12658262 138.79320502 -30.12658262 138.79320502 -32.27050781 140.82666016 C-50.42694889 155.91291586 -71.6341299 158.15735777 -94.52246094 156.17822266 C-107.40279248 154.64788624 -121.05491589 150.34081237 -131.48144531 142.49072266 C-133.03367909 141.20026036 -133.03367909 141.20026036 -135.08300781 141.38916016 C-135.09759033 142.50137939 -135.11217285 143.61359863 -135.12719727 144.75952148 C-135.18626707 148.98506938 -135.2634643 153.21014283 -135.34545898 157.43530273 C-135.37820799 159.24544432 -135.4063855 161.05567583 -135.42944336 162.8659668 C-135.85079951 195.11315981 -144.06817529 222.7968513 -159.28369141 251.08740234 C-163.68535547 259.32323922 -166.84673802 265.91890561 -166.08300781 275.38916016 C-164.29492449 279.5299847 -161.75173191 281.82105329 -158.08300781 284.38916016 C-147.38348406 287.95566808 -136.28424217 284.50645571 -125.87524414 281.52368164 C-108.44098001 276.68234825 -95.05340881 281.2360823 -79.69238281 289.70166016 C-74.66483458 292.56633662 -70.03818084 295.83000533 -65.34472656 299.21337891 C-61.5892238 301.71854661 -57.73991435 303.80676359 -53.70800781 305.82666016 C-53.05356689 306.15682129 -52.39912598 306.48698242 -51.72485352 306.82714844 C-39.50859829 312.77877718 -25.51494599 313.4811785 -12.52050781 309.51416016 C-0.99607307 305.11324333 9.71296046 298.79209958 19.72949219 291.63916016 C30.46883232 283.97788847 41.90974087 278.99953107 55.16699219 278.95166016 C55.93640137 278.94779297 56.70581055 278.94392578 57.49853516 278.93994141 C63.62987931 279.05839764 69.15230884 280.24969938 75.04199219 281.88916016 C84.43496053 284.49937835 96.02154407 287.38236712 105.22949219 282.70166016 C108.80807883 279.62241118 110.72475961 277.71771323 111.12402344 272.88134766 C111.16356127 270.35811538 111.15890308 267.90131172 110.91699219 265.38916016 C110.58699219 265.05916016 110.25699219 264.72916016 109.91699219 264.38916016 C109.73197144 263.06319824 109.73197144 263.06319824 109.54321289 261.71044922 C108.85687972 258.07034142 107.64543209 255.50682028 105.89746094 252.24853516 C105.28708984 251.09482422 104.67671875 249.94111328 104.04785156 248.75244141 C103.40073852 247.54765238 102.75294819 246.34322689 102.10449219 245.13916016 C97.42545019 236.40987081 93.05406909 227.80039087 89.91699219 218.38916016 C89.55863281 217.36951172 89.20027344 216.34986328 88.83105469 215.29931641 C80.57592946 191.04426922 80.69477257 165.73245285 80.91699219 140.38916016 C80.29695312 140.75267578 79.67691406 141.11619141 79.03808594 141.49072266 C56.79995227 154.11499067 29.78151566 161.10065603 4.35449219 154.82666016 C-6.06717616 151.80032702 -14.99825663 146.73972436 -23.27832031 139.77197266 C-25.14188139 138.1884297 -25.14188139 138.1884297 -28.08300781 137.38916016 Z " fill="#2A3253" transform="translate(283.0830078125,75.61083984375)"/>
<path d="M0 0 C3.41519364 1.78184016 4.49086072 2.91752187 5.875 6.5 C5.77247968 11.42097543 4.3673094 14.09286888 0.875 17.5 C-9.628626 24.65027243 -19.72458104 28.01278821 -32.48828125 26.15625 C-42.30875727 24.12091818 -50.36878947 21.13431579 -56.125 12.5 C-56.5625 9.625 -56.5625 9.625 -56.125 6.5 C-54.05311092 3.91013866 -52.35210314 2.04917464 -49.30078125 0.68359375 C-46.08820629 0.41251471 -44.32543443 1.77831086 -41.5625 3.375 C-33.66341179 7.52683783 -25.87103221 8.60552627 -17.125 6.5 C-12.95578754 4.91483068 -9.1013338 3.18116311 -5.4375 0.625 C-3.125 -0.5 -3.125 -0.5 0 0 Z " fill="#333B5B" transform="translate(280.125,238.5)"/>
<path d="M0 0 C6.31828149 6.99524022 9.34140075 15.41711776 9.21875 24.75390625 C8.80327721 29.01992149 6.82403066 31.90129246 4.3125 35.25 C-1.46449017 39.62177635 -9.05275848 39.51829191 -16 39 C-20.26836794 38.21079833 -24.43556304 37.13007899 -28.625 36 C-29.72457031 35.71382813 -30.82414062 35.42765625 -31.95703125 35.1328125 C-34.641055 34.43263239 -37.32166006 33.72155898 -40 33 C-40 32.67 -40 32.34 -40 32 C-35.04973025 32.40575982 -30.66768587 33.04310696 -25.9375 34.5625 C-21.11327759 35.94767277 -16.61078553 36.32898785 -11.625 36.375 C-10.94687256 36.38861572 -10.26874512 36.40223145 -9.57006836 36.41625977 C-5.16964585 36.37641965 -2.59599299 35.47142791 1 33 C1.66 33 2.32 33 3 33 C5.3992233 28.35150485 5.19957409 24.08913926 5 19 C4.01 18.67 3.02 18.34 2 18 C2.66 17.67 3.32 17.34 4 17 C3.59056391 13.56073688 3.02231437 11.04373617 1.4375 7.9375 C-0.02737394 4.94406196 -0.28857572 3.27052479 0 0 Z " fill="#5A5C73" transform="translate(388,323)"/>
<path d="M0 0 C0.515625 0.66 1.03125 1.32 1.5625 2 C2.366875 2.99 3.17125 3.98 4 5 C4.48597656 5.639375 4.97195312 6.27875 5.47265625 6.9375 C10.55741741 13.28443592 16.34507325 16.44835775 24 19 C35.4178095 19.84218426 45.09442545 18.13640015 56 15 C65.98578937 12.32339666 74.29622915 12.06223791 84 16 C81.06098975 16.88961072 78.90202861 17.01487882 75.875 16.5625 C74.25044047 16.37122122 72.62542646 16.18376637 71 16 C69.94039062 15.87818359 69.94039062 15.87818359 68.859375 15.75390625 C62.77991086 15.40316793 57.48712121 16.81812894 51.6875 18.4375 C38.23349088 22.16781676 25.51268579 24.04001658 12.75 16.875 C7.63873059 13.33890167 1.87465428 8.366237 0.27734375 2.21875 C0.18582031 1.4865625 0.09429687 0.754375 0 0 Z " fill="#838298" transform="translate(102,358)"/>
<path d="M0 0 C15.24899903 2.99472442 25.30468948 13.69753891 35 25 C34.67 25.66 34.34 26.32 34 27 C33.45214844 26.40574219 32.90429688 25.81148437 32.33984375 25.19921875 C22.93037423 15.36135062 12.15073221 7.18195148 0 1 C0 0.67 0 0.34 0 0 Z " fill="#5C5D74" transform="translate(303,101)"/>
<path d="M0 0 C0.33 0.66 0.66 1.32 1 2 C-0.24125182 4.61161731 -1.5310524 7.10501786 -2.9375 9.625 C-3.32357422 10.33140625 -3.70964844 11.0378125 -4.10742188 11.765625 C-5.06448696 13.51433651 -6.03134031 15.25768432 -7 17 C-7.33 17 -7.66 17 -8 17 C-7.60442996 10.80273597 -5.52510982 6.11744914 -2 1 C-1.34 0.67 -0.68 0.34 0 0 Z " fill="#434359" transform="translate(147,138)"/>
<path d="M0 0 C5.50001108 0.41250083 9.80255642 2.49267665 14 6 C15.234375 8.16796875 15.234375 8.16796875 16 10 C11.02790438 8.23570801 6.56561939 5.6060834 2 3 C2 2.34 2 1.68 2 1 C1.34 0.67 0.68 0.34 0 0 Z " fill="#3F425C" transform="translate(184,373)"/>
<path d="M0 0 C6.97669157 -0.39325819 12.51656189 0.36903961 19 3 C12.6114003 4.92236145 6.10228244 3.34703171 0 1 C0 0.67 0 0.34 0 0 Z " fill="#79798F" transform="translate(167,371)"/>
<path d="M0 0 C0.66 0.99 1.32 1.98 2 3 C0.96132507 7.67403719 -1.23834652 11.13368513 -4 15 C-4.33 14.34 -4.66 13.68 -5 13 C-4.690625 12.401875 -4.38125 11.80375 -4.0625 11.1875 C-2.80777012 9.03027532 -2.80777012 9.03027532 -3.0625 6.5 C-2.98536302 3.41452074 -2.01275083 2.26434468 0 0 Z " fill="#555974" transform="translate(163,137)"/>
<path d="M0 0 C7.48291572 6.15034169 7.48291572 6.15034169 10 10 C9.67 10.66 9.34 11.32 9 12 C4.33716394 8.48417174 1.27789598 5.96351455 0 0 Z " fill="#59596F" transform="translate(345,111)"/>
<path d="M0 0 C6.04383212 1.57665186 11.00988858 3.19175707 16 7 C15.01 7.495 15.01 7.495 14 8 C9.0224199 6.14560741 4.56463249 3.70151719 0 1 C0 0.67 0 0.34 0 0 Z " fill="#515269" transform="translate(303,101)"/>
<path d="M0 0 C1.60461448 4.01153621 0.45438973 7.07314774 -1 11 C-1.99 11.66 -2.98 12.32 -4 13 C-3.50269348 8.02693484 -2.44697666 4.36200187 0 0 Z " fill="#5D5E74" transform="translate(135,158)"/>
<path d="M0 0 C2 0 2 0 4.5 2.0625 C7.42864313 5.50365568 8.06318806 7.65659921 9 12 C8.34 12 7.68 12 7 12 C6.401875 10.948125 5.80375 9.89625 5.1875 8.8125 C3.49629991 5.85139522 1.76750948 2.91639064 0 0 Z " fill="#626178" transform="translate(338,128)"/>
<path d="M0 0 C-0.66 0 -1.32 0 -2 0 C-2.33 0.99 -2.66 1.98 -3 3 C-4.8125 4.25 -4.8125 4.25 -7 5 C-9.13671875 4.546875 -9.13671875 4.546875 -11 4 C-9.73760288 3.13341385 -8.46472499 2.28207941 -7.1875 1.4375 C-6.47980469 0.96183594 -5.77210938 0.48617188 -5.04296875 -0.00390625 C-3 -1 -3 -1 0 0 Z " fill="#3E3F58" transform="translate(322,375)"/>
<path d="M0 0 C0.33 0 0.66 0 1 0 C1.36630156 3.93774177 1.30233203 5.56539771 -1 8.875 C-1.66 9.57625 -2.32 10.2775 -3 11 C-3.66 10.67 -4.32 10.34 -5 10 C-3.33333333 6.66666667 -1.66666667 3.33333333 0 0 Z " fill="#151D3C" transform="translate(283,244)"/>
<path d="M0 0 C0.33 0.66 0.66 1.32 1 2 C0.22265625 3.9453125 0.22265625 3.9453125 -0.9375 6.125 C-1.31777344 6.84945313 -1.69804688 7.57390625 -2.08984375 8.3203125 C-2.39019531 8.87460937 -2.69054687 9.42890625 -3 10 C-3.33 10 -3.66 10 -4 10 C-3.38461538 3.47692308 -3.38461538 3.47692308 -1.4375 1.0625 C-0.7259375 0.5365625 -0.7259375 0.5365625 0 0 Z " fill="#57586D" transform="translate(124,324)"/>
<path d="M0 0 C4.67692308 1.47692308 4.67692308 1.47692308 6.3125 4.125 C6.539375 4.74375 6.76625 5.3625 7 6 C3.62496331 4.8141763 1.35277269 3.72426311 -1 1 C-0.67 0.67 -0.34 0.34 0 0 Z " fill="#5B5C72" transform="translate(193,377)"/>
<path d="M0 0 C3.16115776 1.36983503 3.9927092 1.9890638 6 5 C3.625 4.6875 3.625 4.6875 1 4 C0.34 3.01 -0.32 2.02 -1 1 C-0.67 0.67 -0.34 0.34 0 0 Z " fill="#4B4C62" transform="translate(330,98)"/>
<path d="M0 0 C0.99 0.33 1.98 0.66 3 1 C2.34 2.98 1.68 4.96 1 7 C0.34 7 -0.32 7 -1 7 C-0.67 4.69 -0.34 2.38 0 0 Z " fill="#41455B" transform="translate(121,293)"/>
<path d="M0 0 C0.6875 1.8125 0.6875 1.8125 1 4 C-0.3125 5.75 -0.3125 5.75 -2 7 C-2.66 7 -3.32 7 -4 7 C-2.92598892 4.08482708 -2.22189824 2.22189824 0 0 Z " fill="#58586F" transform="translate(155,124)"/>
<path d="M0 0 C0.66 0.33 1.32 0.66 2 1 C2 1.66 2 2.32 2 3 C1.01 3.33 0.02 3.66 -1 4 C-0.67 2.68 -0.34 1.36 0 0 Z " fill="#4F5474" transform="translate(389,333)"/>
<path d="M0 0 C0.99 0.495 0.99 0.495 2 1 C1.67 2.65 1.34 4.3 1 6 C0.67 6 0.34 6 0 6 C0 4.02 0 2.04 0 0 Z " fill="#515675" transform="translate(380,316)"/>
<path d="M0 0 C0.99 0.99 1.98 1.98 3 3 C2.01 3.33 1.02 3.66 0 4 C0 2.68 0 1.36 0 0 Z " fill="#474A6C" transform="translate(348,146)"/>
<path d="M0 0 C0.33 0.99 0.66 1.98 1 3 C0.01 3.495 0.01 3.495 -1 4 C-0.67 2.68 -0.34 1.36 0 0 Z " fill="#515677" transform="translate(373,301)"/>
<path d="M0 0 C0.99 0.495 0.99 0.495 2 1 C2 1.66 2 2.32 2 3 C1.34 3 0.68 3 0 3 C0 2.01 0 1.02 0 0 Z " fill="#4C506C" transform="translate(100,327)"/>
<path d="M0 0 C0 0.99 0 1.98 0 3 C-0.66 2.34 -1.32 1.68 -2 1 C-1.34 0.67 -0.68 0.34 0 0 Z " fill="#525878" transform="translate(367,283)"/>
<path d="M0 0 C0.66 0 1.32 0 2 0 C1.67 0.99 1.34 1.98 1 3 C0.67 2.01 0.34 1.02 0 0 Z " fill="#46486C" transform="translate(294,99)"/>
<path d="M0 0 C4 1 4 1 4 1 Z " fill="#515674" transform="translate(375,380)"/>
<path d="M0 0 C0.99 0.33 1.98 0.66 3 1 C2.01 1 1.02 1 0 1 C0 0.67 0 0.34 0 0 Z " fill="#4E5273" transform="translate(388,353)"/>
<path d="M0 0 C1 4 1 4 1 4 Z " fill="#505470" transform="translate(108,311)"/>
<path d="M0 0 C1 4 1 4 1 4 Z " fill="#525776" transform="translate(366,278)"/>
<path d="M0 0 C0.99 0 1.98 0 3 0 C2.67 0.66 2.34 1.32 2 2 C1.34 1.34 0.68 0.68 0 0 Z " fill="#505576" transform="translate(261,220)"/>
<path d="M0 0 C4 1 4 1 4 1 Z " fill="#484A6D" transform="translate(269,93)"/>
<path d="M0 0 C0.99 0.495 0.99 0.495 2 1 C1.01 1.495 1.01 1.495 0 2 C0 1.34 0 0.68 0 0 Z " fill="#565875" transform="translate(204,388)"/>
<path d="M0 0 C0.99 0.495 0.99 0.495 2 1 C1.01 1.495 1.01 1.495 0 2 C0 1.34 0 0.68 0 0 Z " fill="#4F5170" transform="translate(381,380)"/>
<path d="M0 0 C0.66 0.66 1.32 1.32 2 2 C1.34 2 0.68 2 0 2 C0 1.34 0 0.68 0 0 Z " fill="#494F6A" transform="translate(116,376)"/>
<path d="M0 0 C3 1 3 1 3 1 Z " fill="#555877" transform="translate(335,373)"/>
<path d="M0 0 C0.66 0 1.32 0 2 0 C1.67 0.66 1.34 1.32 1 2 C0.67 1.34 0.34 0.68 0 0 Z " fill="#4F5372" transform="translate(130,358)"/>
<path d="" fill="#535879" transform="translate(0,0)"/>
<path d="" fill="#4D5374" transform="translate(0,0)"/>
<path d="M0 0 C3 1 3 1 3 1 Z " fill="#555A78" transform="translate(228,238)"/>
<path d="M0 0 C0.66 0.66 1.32 1.32 2 2 C1.34 2 0.68 2 0 2 C0 1.34 0 0.68 0 0 Z " fill="#535777" transform="translate(276,228)"/>
<path d="" fill="#464B6D" transform="translate(0,0)"/>
<path d="" fill="#464B6D" transform="translate(0,0)"/>
<path d="" fill="#404667" transform="translate(0,0)"/>
<path d="M0 0 C0.66 0.66 1.32 1.32 2 2 C1.34 2 0.68 2 0 2 C0 1.34 0 0.68 0 0 Z " fill="#3F4364" transform="translate(351,152)"/>
<path d="M0 0 C0.66 0 1.32 0 2 0 C1.67 0.66 1.34 1.32 1 2 C0.67 1.34 0.34 0.68 0 0 Z " fill="#454868" transform="translate(340,134)"/>
<path d="M0 0 C0.66 0 1.32 0 2 0 C1.67 0.66 1.34 1.32 1 2 C0.67 1.34 0.34 0.68 0 0 Z " fill="#46486C" transform="translate(310,107)"/>
<path d="M0 0 C0.66 0.66 1.32 1.32 2 2 C1.34 2 0.68 2 0 2 C0 1.34 0 0.68 0 0 Z " fill="#454764" transform="translate(204,80)"/>
<path d="M0 0 C2 1 2 1 2 1 Z " fill="#535474" transform="translate(240,405)"/>
<path d="" fill="#515474" transform="translate(0,0)"/>
<path d="M0 0 C2 1 2 1 2 1 Z " fill="#525675" transform="translate(188,378)"/>
<path d="" fill="#4C4F6E" transform="translate(0,0)"/>
<path d="" fill="#444765" transform="translate(0,0)"/>
<path d="M0 0 C2 1 2 1 2 1 Z " fill="#505573" transform="translate(381,358)"/>
<path d="M0 0 C2 1 2 1 2 1 Z " fill="#555678" transform="translate(143,358)"/>
<path d="" fill="#4A5171" transform="translate(0,0)"/>
<path d="" fill="#515878" transform="translate(0,0)"/>
<path d="" fill="#515777" transform="translate(0,0)"/>
<path d="" fill="#525673" transform="translate(0,0)"/>
<path d="" fill="#4C516F" transform="translate(0,0)"/>
<path d="M0 0 C2 1 2 1 2 1 Z " fill="#515777" transform="translate(233,238)"/>
<path d="M0 0 C2 1 2 1 2 1 Z " fill="#555A7B" transform="translate(310,234)"/>
<path d="M0 0 C2 1 2 1 2 1 Z " fill="#545B7A" transform="translate(302,234)"/>
<path d="M0 0 C2 1 2 1 2 1 Z " fill="#4E5476" transform="translate(161,229)"/>
<path d="M0 0 C2 1 2 1 2 1 Z " fill="#4F5172" transform="translate(150,221)"/>
<path d="M0 0 C2 1 2 1 2 1 Z " fill="#494D6D" transform="translate(126,195)"/>
<path d="" fill="#4B4E6C" transform="translate(0,0)"/>
<path d="" fill="#4A4B6A" transform="translate(0,0)"/>
<path d="M0 0 C2 1 2 1 2 1 Z " fill="#444C6D" transform="translate(210,185)"/>
<path d="M0 0 C2 1 2 1 2 1 Z " fill="#4B5073" transform="translate(306,152)"/>
<path d="" fill="#464C6E" transform="translate(0,0)"/>
<path d="M0 0 C2 1 2 1 2 1 Z " fill="#494D6E" transform="translate(160,152)"/>
<path d="" fill="#474864" transform="translate(0,0)"/>
<path d="" fill="#474B6F" transform="translate(0,0)"/>
<path d="M0 0 C2 1 2 1 2 1 Z " fill="#484A70" transform="translate(200,109)"/>
<path d="M0 0 C2 1 2 1 2 1 Z " fill="#4B4D70" transform="translate(308,108)"/>
<path d="" fill="#3D405D" transform="translate(0,0)"/>
<path d="M0 0 C2 1 2 1 2 1 Z " fill="#4B4F70" transform="translate(240,93)"/>
<path d="M0 0 C2 1 2 1 2 1 Z " fill="#484D71" transform="translate(255,92)"/>
<path d="" fill="#515473" transform="translate(0,0)"/>
<path d="" fill="#565874" transform="translate(0,0)"/>
<path d="" fill="#565674" transform="translate(0,0)"/>
<path d="" fill="#565978" transform="translate(0,0)"/>
<path d="" fill="#525371" transform="translate(0,0)"/>
<path d="" fill="#525773" transform="translate(0,0)"/>
<path d="" fill="#545673" transform="translate(0,0)"/>
<path d="" fill="#515374" transform="translate(0,0)"/>
<path d="" fill="#545371" transform="translate(0,0)"/>
<path d="" fill="#575B74" transform="translate(0,0)"/>
<path d="" fill="#535575" transform="translate(0,0)"/>
<path d="" fill="#525776" transform="translate(0,0)"/>
<path d="" fill="#535979" transform="translate(0,0)"/>
<path d="" fill="#525674" transform="translate(0,0)"/>
<path d="" fill="#4C5473" transform="translate(0,0)"/>
<path d="" fill="#4F5372" transform="translate(0,0)"/>
<path d="" fill="#525776" transform="translate(0,0)"/>
<path d="" fill="#515576" transform="translate(0,0)"/>
<path d="" fill="#525472" transform="translate(0,0)"/>
<path d="" fill="#515674" transform="translate(0,0)"/>
<path d="" fill="#555673" transform="translate(0,0)"/>
<path d="" fill="#555773" transform="translate(0,0)"/>
<path d="" fill="#505674" transform="translate(0,0)"/>
<path d="" fill="#545878" transform="translate(0,0)"/>
<path d="" fill="#535574" transform="translate(0,0)"/>
<path d="" fill="#4F526F" transform="translate(0,0)"/>
<path d="" fill="#4F5673" transform="translate(0,0)"/>
<path d="" fill="#525370" transform="translate(0,0)"/>
<path d="" fill="#4A506E" transform="translate(0,0)"/>
<path d="" fill="#515571" transform="translate(0,0)"/>
<path d="" fill="#565879" transform="translate(0,0)"/>
<path d="" fill="#555777" transform="translate(0,0)"/>
<path d="" fill="#585F7D" transform="translate(0,0)"/>
<path d="" fill="#565E7D" transform="translate(0,0)"/>
<path d="" fill="#494B67" transform="translate(0,0)"/>
<path d="" fill="#535675" transform="translate(0,0)"/>
<path d="" fill="#484D6B" transform="translate(0,0)"/>
<path d="" fill="#535678" transform="translate(0,0)"/>
<path d="" fill="#555979" transform="translate(0,0)"/>
<path d="" fill="#4A5777" transform="translate(0,0)"/>
<path d="" fill="#545576" transform="translate(0,0)"/>
<path d="" fill="#525674" transform="translate(0,0)"/>
<path d="" fill="#4D526D" transform="translate(0,0)"/>
<path d="" fill="#585E7B" transform="translate(0,0)"/>
<path d="" fill="#565D7B" transform="translate(0,0)"/>
<path d="" fill="#565E7D" transform="translate(0,0)"/>
<path d="" fill="#525676" transform="translate(0,0)"/>
<path d="" fill="#4D5573" transform="translate(0,0)"/>
<path d="" fill="#4D5372" transform="translate(0,0)"/>
<path d="" fill="#4F5575" transform="translate(0,0)"/>
<path d="" fill="#4D5274" transform="translate(0,0)"/>
<path d="" fill="#505678" transform="translate(0,0)"/>
<path d="" fill="#505573" transform="translate(0,0)"/>
<path d="" fill="#515674" transform="translate(0,0)"/>
<path d="" fill="#4A4B67" transform="translate(0,0)"/>
<path d="" fill="#515779" transform="translate(0,0)"/>
<path d="" fill="#515975" transform="translate(0,0)"/>
<path d="" fill="#515376" transform="translate(0,0)"/>
<path d="" fill="#555877" transform="translate(0,0)"/>
<path d="" fill="#515676" transform="translate(0,0)"/>
<path d="" fill="#4E5472" transform="translate(0,0)"/>
<path d="" fill="#535574" transform="translate(0,0)"/>
<path d="" fill="#565C79" transform="translate(0,0)"/>
<path d="" fill="#4E5472" transform="translate(0,0)"/>
<path d="" fill="#545A79" transform="translate(0,0)"/>
<path d="" fill="#545878" transform="translate(0,0)"/>
<path d="" fill="#4E5171" transform="translate(0,0)"/>
<path d="" fill="#535673" transform="translate(0,0)"/>
<path d="" fill="#4D516F" transform="translate(0,0)"/>
<path d="" fill="#525879" transform="translate(0,0)"/>
<path d="" fill="#515777" transform="translate(0,0)"/>
<path d="" fill="#535777" transform="translate(0,0)"/>
<path d="" fill="#636B85" transform="translate(0,0)"/>
<path d="" fill="#505573" transform="translate(0,0)"/>
<path d="" fill="#626A84" transform="translate(0,0)"/>
<path d="" fill="#636B85" transform="translate(0,0)"/>
<path d="" fill="#5F6780" transform="translate(0,0)"/>
<path d="" fill="#636A84" transform="translate(0,0)"/>
<path d="" fill="#4A4E6D" transform="translate(0,0)"/>
<path d="" fill="#4D516F" transform="translate(0,0)"/>
<path d="" fill="#505574" transform="translate(0,0)"/>
<path d="" fill="#5D6580" transform="translate(0,0)"/>
<path d="" fill="#626581" transform="translate(0,0)"/>
<path d="" fill="#5E657F" transform="translate(0,0)"/>
<path d="" fill="#5B6280" transform="translate(0,0)"/>
<path d="" fill="#4A4D6B" transform="translate(0,0)"/>
<path d="" fill="#4A4E6F" transform="translate(0,0)"/>
<path d="" fill="#5C6581" transform="translate(0,0)"/>
<path d="" fill="#5D6383" transform="translate(0,0)"/>
<path d="" fill="#525977" transform="translate(0,0)"/>
<path d="" fill="#585C7D" transform="translate(0,0)"/>
<path d="" fill="#575E7C" transform="translate(0,0)"/>
<path d="" fill="#585E7E" transform="translate(0,0)"/>
<path d="" fill="#555A7C" transform="translate(0,0)"/>
<path d="" fill="#545977" transform="translate(0,0)"/>
<path d="" fill="#535A79" transform="translate(0,0)"/>
<path d="" fill="#515677" transform="translate(0,0)"/>
<path d="" fill="#50577C" transform="translate(0,0)"/>
<path d="" fill="#4F5474" transform="translate(0,0)"/>
<path d="" fill="#575B7C" transform="translate(0,0)"/>
<path d="" fill="#555B7A" transform="translate(0,0)"/>
<path d="" fill="#464B69" transform="translate(0,0)"/>
<path d="" fill="#535375" transform="translate(0,0)"/>
<path d="" fill="#4E5476" transform="translate(0,0)"/>
<path d="" fill="#505778" transform="translate(0,0)"/>
<path d="" fill="#464C6B" transform="translate(0,0)"/>
<path d="" fill="#515576" transform="translate(0,0)"/>
<path d="" fill="#4D5374" transform="translate(0,0)"/>
<path d="" fill="#515576" transform="translate(0,0)"/>
<path d="" fill="#4E5272" transform="translate(0,0)"/>
<path d="" fill="#474B69" transform="translate(0,0)"/>
<path d="" fill="#4F5274" transform="translate(0,0)"/>
<path d="" fill="#4A4E71" transform="translate(0,0)"/>
<path d="" fill="#454A68" transform="translate(0,0)"/>
<path d="" fill="#444968" transform="translate(0,0)"/>
<path d="" fill="#43476A" transform="translate(0,0)"/>
<path d="" fill="#424764" transform="translate(0,0)"/>
<path d="" fill="#464D6C" transform="translate(0,0)"/>
<path d="" fill="#484C6A" transform="translate(0,0)"/>
<path d="" fill="#4A4D6B" transform="translate(0,0)"/>
<path d="" fill="#474B6E" transform="translate(0,0)"/>
<path d="" fill="#4A4F6F" transform="translate(0,0)"/>
<path d="" fill="#464B6D" transform="translate(0,0)"/>
<path d="" fill="#484B71" transform="translate(0,0)"/>
<path d="" fill="#474A6D" transform="translate(0,0)"/>
<path d="" fill="#47496A" transform="translate(0,0)"/>
<path d="" fill="#434865" transform="translate(0,0)"/>
<path d="" fill="#404262" transform="translate(0,0)"/>
<path d="" fill="#3F4461" transform="translate(0,0)"/>
<path d="" fill="#444963" transform="translate(0,0)"/>
<path d="" fill="#484B6E" transform="translate(0,0)"/>
<path d="" fill="#454A6E" transform="translate(0,0)"/>
<path d="" fill="#4A4B68" transform="translate(0,0)"/>
<path d="" fill="#484B6C" transform="translate(0,0)"/>
<path d="" fill="#464E6D" transform="translate(0,0)"/>
<path d="" fill="#434A6C" transform="translate(0,0)"/>
<path d="" fill="#494E6F" transform="translate(0,0)"/>
<path d="" fill="#494E71" transform="translate(0,0)"/>
<path d="" fill="#4B5072" transform="translate(0,0)"/>
<path d="" fill="#4A4F73" transform="translate(0,0)"/>
<path d="" fill="#444B6E" transform="translate(0,0)"/>
<path d="" fill="#4B4F72" transform="translate(0,0)"/>
<path d="" fill="#4A4E6F" transform="translate(0,0)"/>
<path d="" fill="#494D6E" transform="translate(0,0)"/>
<path d="" fill="#484B6F" transform="translate(0,0)"/>
<path d="" fill="#444365" transform="translate(0,0)"/>
<path d="" fill="#494D71" transform="translate(0,0)"/>
<path d="" fill="#474C70" transform="translate(0,0)"/>
<path d="" fill="#444968" transform="translate(0,0)"/>
<path d="" fill="#444663" transform="translate(0,0)"/>
<path d="" fill="#464862" transform="translate(0,0)"/>
<path d="" fill="#464866" transform="translate(0,0)"/>
<path d="" fill="#454664" transform="translate(0,0)"/>
<path d="" fill="#474B6D" transform="translate(0,0)"/>
<path d="" fill="#3F445E" transform="translate(0,0)"/>
<path d="" fill="#45496B" transform="translate(0,0)"/>
<path d="" fill="#4B4B6D" transform="translate(0,0)"/>
<path d="" fill="#494A6E" transform="translate(0,0)"/>
<path d="" fill="#484E70" transform="translate(0,0)"/>
<path d="" fill="#484B6D" transform="translate(0,0)"/>
<path d="" fill="#46486B" transform="translate(0,0)"/>
<path d="" fill="#484E6F" transform="translate(0,0)"/>
<path d="" fill="#464A6F" transform="translate(0,0)"/>
<path d="" fill="#494C71" transform="translate(0,0)"/>
<path d="" fill="#464C6F" transform="translate(0,0)"/>
<path d="" fill="#484E71" transform="translate(0,0)"/>
<path d="" fill="#45496F" transform="translate(0,0)"/>
<path d="" fill="#484D70" transform="translate(0,0)"/>
<path d="" fill="#464A6F" transform="translate(0,0)"/>
<path d="" fill="#3F445F" transform="translate(0,0)"/>
<path d="" fill="#424761" transform="translate(0,0)"/>
<path d="" fill="#484D6F" transform="translate(0,0)"/>
<path d="" fill="#474A6D" transform="translate(0,0)"/>
<path d="" fill="#3D4060" transform="translate(0,0)"/>
<path d="" fill="#3D4262" transform="translate(0,0)"/>
<path d="" fill="#40455F" transform="translate(0,0)"/>
<path d="" fill="#414662" transform="translate(0,0)"/>
<path d="" fill="#404364" transform="translate(0,0)"/>
<path d="" fill="#404362" transform="translate(0,0)"/>
<path d="" fill="#414462" transform="translate(0,0)"/>
<path d="" fill="#414462" transform="translate(0,0)"/>
<path d="" fill="#424562" transform="translate(0,0)"/>
<path d="" fill="#484768" transform="translate(0,0)"/>
<path d="" fill="#444864" transform="translate(0,0)"/>
<path d="" fill="#434563" transform="translate(0,0)"/>
<path d="" fill="#404462" transform="translate(0,0)"/>
<path d="" fill="#424767" transform="translate(0,0)"/>
<path d="" fill="#434765" transform="translate(0,0)"/>
<path d="" fill="#3F4462" transform="translate(0,0)"/>
</svg>
